<svg xmlns:xlink="http://www.w3.org/1999/xlink" width="18" height="17" viewBox="0 0 17 16" fill="none" xmlns="http://www.w3.org/2000/svg"><path d="M2.10583 0.926921C2.54197 0.926921 2.93658 1.20706 3.01965 1.58057L4.95114 10.7317C5.07575 11.2172 5.55343 11.5721 6.09341 11.5721H14.2555C14.3801 11.5721 14.4632 11.4974 14.4632 11.3853C14.4632 11.2733 14.3801 11.1986 14.2555 11.1986H6.11418C5.76111 11.1986 5.44958 10.9745 5.36651 10.657L5.07575 9.331H14.2555C14.3593 9.331 14.4424 9.27497 14.4632 9.18159L16.1247 3.20536C16.1454 3.14933 16.1247 3.0933 16.0831 3.03728C16.0416 2.98125 15.9793 2.98125 15.917 2.98125H3.80194C3.67733 2.98125 3.59425 3.05595 3.59425 3.16801C3.59425 3.28006 3.67733 3.35476 3.80194 3.35476H15.647L14.0893 8.95748H5.05498C5.03421 8.95748 5.01344 8.95748 4.99267 8.97616L3.41426 1.52454C3.28965 0.964273 2.72889 0.572083 2.08506 0.572083H0.340499C0.215887 0.572083 0.132812 0.646785 0.132812 0.75884C0.132812 0.870894 0.215887 0.945597 0.340499 0.945597H2.10583V0.926921Z" fill="#323232" stroke="#323232" stroke-width="0.2px"></path><path d="M7.07424 14.072C7.07424 13.3321 6.45767 12.7156 5.71778 12.7156C4.9779 12.7156 4.36133 13.3321 4.36133 14.072C4.36133 14.8119 4.9779 15.4285 5.71778 15.4285C6.45767 15.4285 7.07424 14.8119 7.07424 14.072ZM4.85458 14.072C4.85458 13.6034 5.24919 13.2088 5.71778 13.2088C6.18638 13.2088 6.58098 13.6034 6.58098 14.072C6.58098 14.5406 6.18638 14.9352 5.71778 14.9352C5.24919 14.9352 4.85458 14.5406 4.85458 14.072Z" fill="#323232" stroke-width="0.8px"></path><path d="M15.2129 14.072C15.2129 13.3321 14.5963 12.7156 13.8565 12.7156C13.1166 12.7156 12.5 13.3321 12.5 14.072C12.5 14.8119 13.1166 15.4285 13.8565 15.4285C14.5963 15.4285 15.2129 14.8119 15.2129 14.072ZM12.9933 14.072C12.9933 13.6034 13.3879 13.2088 13.8565 13.2088C14.325 13.2088 14.7197 13.6034 14.7197 14.072C14.7197 14.5406 14.325 14.9352 13.8565 14.9352C13.3879 14.9352 12.9933 14.5406 12.9933 14.072Z" fill="#323232" stroke-width="0.8px"></path></svg>